<svg xmlns="http://www.w3.org/2000/svg" viewBox="0 0 64 64"><defs><style>.cls-1{isolation:isolate;}.cls-2{mix-blend-mode:multiply;}.cls-3{fill:#50aee2;}.cls-4{opacity:0.08;}.cls-5{fill:#302a27;}.cls-6{fill:#368bba;}</style></defs><title>fish</title><g class="cls-1"><g id="icons" class="cls-2"><path class="cls-3" d="M54,34c0,3.13-6.6,13-18,13-8.33,0-10.93-4.06-13-7.32-1.34-2.1-2.27-3.41-4-3.74,0-.61.08-1.26.08-1.94s0-1.33-.08-1.94c1.74-.33,2.67-1.64,4-3.74C25,25.06,27.62,21,36,21,47.4,21,54,30.87,54,34Z"/><ellipse class="cls-4" cx="32" cy="56" rx="18" ry="2"/><circle class="cls-5" cx="45" cy="30" r="1"/><path class="cls-6" d="M11.27,21A1,1,0,0,0,10,22c0,5.28,1.29,9.07,3.85,11.26a7.67,7.67,0,0,0,1,.74,7.67,7.67,0,0,0-1,.74C11.29,36.93,10,40.72,10,46a1,1,0,0,0,1.27,1c.32-.09,7.73-2.33,7.73-13S11.59,21.13,11.27,21Z"/><path class="cls-6" d="M37.9,21.1a17.67,17.67,0,0,0-2-.1c-4.6,0-7.45,1.24-9.43,2.9a8.9,8.9,0,0,0-2.23-5.19,1,1,0,0,1-.21-1.09A1,1,0,0,1,25,17C31.65,17,35.6,19,37.9,21.1Z"/></g></g></svg>