<?xml version="1.0" standalone="no"?>
<!DOCTYPE svg PUBLIC "-//W3C//DTD SVG 20010904//EN"
 "http://www.w3.org/TR/2001/REC-SVG-20010904/DTD/svg10.dtd">
<svg version="1.0" xmlns="http://www.w3.org/2000/svg"
 width="900.000000pt" height="900.000000pt" viewBox="0 0 900.000000 900.000000"
 preserveAspectRatio="xMidYMid meet">
<metadata>
Created by potrace 1.11, written by Peter Selinger 2001-2013
</metadata>
<g transform="translate(0.000000,900.000000) scale(0.100000,-0.100000)"
fill="#000000" stroke="none">
<path d="M3355 7557 c-60 -29 -95 -86 -95 -156 0 -41 19 -73 130 -216 74 -96
154 -247 195 -370 30 -88 65 -245 65 -292 0 -18 5 -33 10 -33 5 0 -43 -53
-107 -118 -144 -144 -220 -243 -403 -527 -78 -121 -167 -254 -197 -296 -137
-192 -258 -291 -413 -340 l-55 -17 2 -218 1 -219 -8 195 c-13 337 -51 573
-131 815 -158 481 -462 856 -870 1074 -117 62 -218 101 -265 101 -51 0 -101
-27 -130 -69 -23 -34 -24 -43 -24 -187 0 -546 128 -1058 347 -1388 78 -117
242 -291 342 -361 l68 -49 -77 -57 c-174 -131 -339 -336 -440 -544 -151 -312
-240 -758 -240 -1199 0 -169 9 -197 72 -237 112 -70 424 79 705 336 298 274
506 667 592 1125 17 91 24 148 44 360 2 19 5 5 5 -31 l2 -67 38 -7 c91 -16
196 -81 300 -183 77 -77 158 -188 331 -456 156 -242 242 -356 366 -485 164
-170 314 -282 511 -380 565 -281 1460 -305 2134 -57 391 143 708 330 1016 597
445 386 803 933 821 1254 8 136 -40 297 -148 490 -371 667 -1015 1197 -1756
1444 -139 46 -397 105 -538 122 -99 12 -100 12 -155 61 -30 27 -100 80 -155
117 -445 301 -989 456 -1680 476 -143 5 -186 3 -210 -8z"/>
</g>
</svg>
